<?xml version="1.0" encoding="UTF-8" standalone="no"?>
<!DOCTYPE svg PUBLIC "-//W3C//DTD SVG 1.1//EN" "http://www.w3.org/Graphics/SVG/1.1/DTD/svg11.dtd">
<svg width="100%" height="100%" viewBox="0 0 18 18" version="1.1" xmlns="http://www.w3.org/2000/svg" xmlns:xlink="http://www.w3.org/1999/xlink" xml:space="preserve" xmlns:serif="http://www.serif.com/" style="fill-rule:evenodd;clip-rule:evenodd;stroke-linejoin:round;stroke-miterlimit:2;">
    <g transform="matrix(1,0,0,1,-421.893,-129.607)">
        <g transform="matrix(1,0,0,1,17.385,53.1087)">
            <g transform="matrix(1,0,0,1,401.01,73)">
                <path d="M6.159,18.17C4.523,16.621 3.502,14.429 3.502,12C3.502,7.309 7.311,3.5 12.002,3.5C16.693,3.5 20.502,7.309 20.502,12C20.502,14.429 19.481,16.621 17.846,18.17C17.916,17.962 17.952,17.747 17.952,17.527C17.952,15.651 15.286,14.127 12.002,14.127C8.718,14.127 6.052,15.651 6.052,17.527C6.052,17.747 6.089,17.962 6.159,18.17ZM12,7.062C13.507,7.062 14.731,8.285 14.731,9.793C14.731,11.3 13.507,12.523 12,12.523C10.493,12.523 9.269,11.3 9.269,9.793C9.269,8.285 10.493,7.062 12,7.062Z" style="fill:rgb(130,130,130);"/>
            </g>
            <g transform="matrix(1,0,0,1,399.68,71.1496)">
                <path d="M13.33,5.348C18.022,5.348 21.832,9.158 21.832,13.85C21.832,18.543 18.022,22.353 13.33,22.353C8.637,22.353 4.828,18.543 4.828,13.85C4.828,9.158 8.637,5.348 13.33,5.348ZM13.33,7.348C16.919,7.348 19.832,10.262 19.832,13.85C19.832,17.439 16.919,20.353 13.33,20.353C9.741,20.353 6.828,17.439 6.828,13.85C6.828,10.262 9.741,7.348 13.33,7.348Z" style="fill:rgb(130,130,130);"/>
            </g>
        </g>
    </g>
</svg>
