<?xml version="1.0" encoding="UTF-8" standalone="no"?>
<!DOCTYPE svg PUBLIC "-//W3C//DTD SVG 1.1//EN" "http://www.w3.org/Graphics/SVG/1.1/DTD/svg11.dtd">
<svg width="100%" height="100%" viewBox="0 0 18 19" version="1.1" xmlns="http://www.w3.org/2000/svg" xmlns:xlink="http://www.w3.org/1999/xlink" xml:space="preserve" xmlns:serif="http://www.serif.com/" style="fill-rule:evenodd;clip-rule:evenodd;stroke-linejoin:round;stroke-miterlimit:2;">
    <g transform="matrix(1,0,0,1,-486.48,-126.473)">
        <g transform="matrix(1,0,0,1,483.48,124.473)">
            <path d="M15.307,11C15.138,11 15,10.862 15,10.693L15,5.127C15,5.046 14.968,4.968 14.91,4.91C14.502,4.502 12.821,2.821 12.217,2.217C12.097,2.097 11.903,2.097 11.783,2.217C11.179,2.821 9.498,4.502 9.09,4.91C9.032,4.968 9,5.046 9,5.127C9,5.439 9,6.247 9,6.693C9,6.774 8.968,6.852 8.91,6.91C8.852,6.968 8.774,7 8.693,7C7.663,7 4.337,7 3.307,7C3.226,7 3.148,7.032 3.09,7.09C3.032,7.148 3,7.226 3,7.307C3,9.161 3,18.839 3,20.693C3,20.774 3.032,20.852 3.09,20.91C3.148,20.968 3.226,21 3.307,21C5.481,21 18.519,21 20.693,21C20.862,21 21,20.862 21,20.693C21,19.209 21,12.791 21,11.307C21,11.138 20.862,11 20.693,11L15.307,11ZM7,19L5,19L5,17L7,17L7,19ZM7,15L5,15L5,13L7,13L7,15ZM7,11L5,11L5,9L7,9L7,11ZM13,19L11,19L11,17L13,17L13,19ZM13,15L11,15L11,13L13,13L13,15ZM13,11L11,11L11,9L13,9L13,11ZM13,7L11,7L11,5L13,5L13,7ZM19,19L17,19L17,17L19,17L19,19ZM19,15L17,15L17,13L19,13L19,15Z" style="fill:rgb(130,130,130);fill-rule:nonzero;"/>
        </g>
    </g>
</svg>
